<svg xmlns:dc="http://purl.org/dc/elements/1.1/" xmlns:cc="http://creativecommons.org/ns#" xmlns:rdf="http://www.w3.org/1999/02/22-rdf-syntax-ns#" xmlns:svg="http://www.w3.org/2000/svg" xmlns="http://www.w3.org/2000/svg" xmlns:sodipodi="http://sodipodi.sourceforge.net/DTD/sodipodi-0.dtd" xmlns:inkscape="http://www.inkscape.org/namespaces/inkscape" version="1.1" x="0px" y="0px" viewBox="0 0 100 125"><g transform="translate(0,-952.36218)"><path d="m 49.9375,958.36405 c -0.063,0 -0.1255,0.02 -0.1875,0.03 -0.4924,0.06 -0.9592,0.31 -1.2812,0.687 0,0 -7.5522,8.975 -15.124999,20.399 -7.5729,11.424 -15.3438,25.14105 -15.3438,35.89295 0,17.224 14.3935,30.9891 31.999999,30.9891 17.6065,0 32,-13.7651 32,-30.9891 0,-10.7519 -7.770901,-24.46895 -15.3438,-35.89295 -7.5728,-11.424 -15.1249,-20.399 -15.1249,-20.399 -0.3863,-0.463 -0.991,-0.735 -1.5938,-0.718 z" style="text-indent:0;text-transform:none;direction:ltr;block-progression:tb;baseline-shift:baseline;color:#000000;enable-background:accumulate;" fill="#000000" fill-opacity="1" stroke="none" marker="none" visibility="visible" display="inline" overflow="visible"/></g><text x="0" y="115" fill="#000000" font-size="5px" font-weight="bold" font-family="'Helvetica Neue', Helvetica, Arial-Unicode, Arial, Sans-serif">Created by Nanda Ririz</text><text x="0" y="120" fill="#000000" font-size="5px" font-weight="bold" font-family="'Helvetica Neue', Helvetica, Arial-Unicode, Arial, Sans-serif">from the Noun Project</text></svg>